{"title":"Coffee.Shop.2014.DVDRip.x264-MenaceIISociety","uid":12239710,"size":951826328,"categoryP":"video","categoryS":"movies","magnet":"?xt=urn:btih:909861648e3836c2c053432c417fcde6ca870542&amp;dn=Coffee.Shop.2014.DVDRip.x264-MenaceIISociety&amp;tr=udp%3A%2F%2Ftracker.openbittorrent.com%3A80&amp;tr=udp%3A%2F%2Fopen.demonii.com%3A1337&amp;tr=udp%3A%2F%2Ftracker.coppersurfer.tk%3A6969&amp;tr=udp%3A%2F%2Fexodus.desync.com%3A6969","seeders":2,"leechers":0,"uploader":"xxxlavalxxx","files":4,"time":1439743709,"description":" &lt;a href=&quot;http://extraimago.com/image/ywe&quot; rel=&quot;nofollow&quot; target=&quot;_NEW&quot;&gt;http://extraimago.com/image/ywe&lt;/a&gt;\n &lt;a href=&quot;\nhttp://www.imdb.com/title/tt3530146/&quot; rel=&quot;nofollow&quot; target=&quot;_NEW&quot;&gt;\nhttp://www.imdb.com/title/tt3530146/&lt;/a&gt;\n\n\nWhen a young coffee shop owner is threatened with repossession she must take a chance with life and love as she fights to save her business.\n\nDirector: Dave Alan Johnson\nWriters: Jon Erwin, Theresa Preston\nStars: Laura Vandervoort, Cory M. Grant, Josh Ventura \nGenres: Comedy | Drama | Romance\nCountry: USA\nLanguage: English\n\n\nCoffee.Shop.2014.DVDRip.x264-MenaceIISociety\n &lt;a href=&quot;\nhttp://www.imdb.com/title/tt3530146/&quot; rel=&quot;nofollow&quot; target=&quot;_NEW&quot;&gt;\nhttp://www.imdb.com/title/tt3530146/&lt;/a&gt;\nSource: DL.PAL.DVDR-CiA [THANKS]\n\nGeneral\nComplete name: Coffee.Shop.2014.DVDRip.x264-MenaceIISociety.mp4\nFormat: MPEG-4\nFormat profile: Base Media\nCodec ID: isom\nFile size: 878 MiB\nDuration: 1h 24mn\nOverall bit rate mode: Variable\nOverall bit rate: 1 452 Kbps\nEncoded date: UTC 2015-08-16 10:04:14\nTagged date: UTC 2015-08-16 10:04:14\n\nVideo\nID: 1\nFormat: AVC\nFormat/Info: Advanced Video Codec\nFormat profile: &lt;a class=&quot;__cf_email__&quot; href=&quot;/cdn-cgi/l/email-protection&quot; data-cfemail=&quot;da92b3bdb29a96eef4eb&quot;&gt;[email&amp;#160;protected]&lt;/a&gt;&lt;script data-cfhash='f9e31' type=&quot;text/javascript&quot;&gt;\n/* &lt;![CDATA[ */!function(){try{var t=&quot;currentScript&quot;in document?document.currentScript:function(){for(var t=document.getElementsByTagName(&quot;script&quot;),e=t.length;e--;)if(t[e].getAttribute(&quot;data-cfhash&quot;))return t[e]}();if(t&amp;&amp;t.previousSibling){var e,r,n,i,c=t.previousSibling,a=c.getAttribute(&quot;data-cfemail&quot;);if(a){for(e=&quot;&quot;,r=parseInt(a.substr(0,2),16),n=2;a.length-n;n+=2)i=parseInt(a.substr(n,2),16)^r,e+=String.fromCharCode(i);e=document.createTextNode(e),c.parentNode.replaceChild(e,c)}t.parentNode.removeChild(t);}}catch(u){}}()/* ]]&gt; */&lt;/script&gt;\nFormat settings, CABAC: Yes\nFormat settings, ReFrames: 3 frames\nCodec ID: avc1\nCodec ID/Info: Advanced Video Coding\nDuration: 1h 24mn\nBit rate mode: Variable\nBit rate: 1 146 Kbps\nMaximum bit rate: 40.0 Mbps\nWidth: 720 pixels\nHeight: 400 pixels\nDisplay aspect ratio: 16:9\nFrame rate mode: Constant\nFrame rate: 25.000 fps\nColor space: YUV\nChroma subsampling: 4:2:0\nBit depth: 8 bits\nScan type: Progressive\nBits/(Pixel*Frame): 0.159\nStream size: 693 MiB (79%)\nWriting library: x264 core 148 r2579 73ae2d1\n\nAudio\nID: 2\nFormat: AAC\nFormat/Info: Advanced Audio Codec\nFormat profile: LC\nCodec ID: 40\nDuration: 1h 24mn\nBit rate mode: Variable\nBit rate: 302 Kbps\nMaximum bit rate: 385 Kbps\nChannel(s): 6 channels\nChannel positions: Front: L C R, Side: L R, LFE\nSampling rate: 48.0 KHz\nCompression mode: Lossy\nStream size: 183 MiB (21%)\nLanguage: English\nEncoded date: UTC 2015-08-16 09:12:24\nTagged date: UTC 2015-08-16 10:05:05 \n\n &lt;a href=&quot;\nhttp://extraimago.com/image/yw4&quot; rel=&quot;nofollow&quot; target=&quot;_NEW&quot;&gt;\nhttp://extraimago.com/image/yw4&lt;/a&gt; &lt;a href=&quot;\nhttp://extraimago.com/image/ywB&quot; rel=&quot;nofollow&quot; target=&quot;_NEW&quot;&gt;\nhttp://extraimago.com/image/ywB&lt;/a&gt; &lt;a href=&quot;\nhttp://extraimago.com/image/ywC&quot; rel=&quot;nofollow&quot; target=&quot;_NEW&quot;&gt;\nhttp://extraimago.com/image/ywC&lt;/a&gt; &lt;a href=&quot;\nhttp://extraimago.com/image/ywY&quot; rel=&quot;nofollow&quot; target=&quot;_NEW&quot;&gt;\nhttp://extraimago.com/image/ywY&lt;/a&gt;","torrent":{"xt":"urn:btih:909861648e3836c2c053432c417fcde6ca870542","amp;dn":"Coffee.Shop.2014.DVDRip.x264-MenaceIISociety","amp;tr":["udp%3A%2F%2Ftracker.openbittorrent.com%3A80","udp%3A%2F%2Fopen.demonii.com%3A1337","udp%3A%2F%2Ftracker.coppersurfer.tk%3A6969","udp%3A%2F%2Fexodus.desync.com%3A6969"],"infoHash":"909861648e3836c2c053432c417fcde6ca870542","infoHashBuffer":{"type":"Buffer","data":[144,152,97,100,142,56,54,194,192,83,67,44,65,127,205,230,202,135,5,66]},"announce":[],"urlList":[]}}